<svg width="130" height="130" viewBox="0 0 130 130" fill="none" xmlns="http://www.w3.org/2000/svg">
<path d="M65 0C52.1442 0 39.5771 3.81218 28.888 10.9545C18.1988 18.0968 9.86755 28.2484 4.94786 40.1256C0.0281637 52.0028 -1.25905 65.0721 1.24899 77.6809C3.75702 90.2896 9.94767 101.872 19.0381 110.962C28.1285 120.052 39.7104 126.243 52.3191 128.751C64.9279 131.259 77.9972 129.972 89.8744 125.052C101.752 120.132 111.903 111.801 119.046 101.112C126.188 90.4229 130 77.8558 130 65C130 47.7609 123.152 31.2279 110.962 19.0381C98.7721 6.84819 82.2391 0 65 0V0Z" fill="#262359"/>
<path d="M91.6964 65.0001L47.5893 90.5358V39.4644L91.6964 65.0001Z" stroke="white" stroke-width="3.5" stroke-miterlimit="10"/>
</svg>
